<?xml version="1.0" encoding="UTF-8"?>
<svg xmlns="http://www.w3.org/2000/svg" id="Layer_1" data-name="Layer 1" viewBox="0 0 480 320">
  <defs>
    <style>.cls-1{fill:#505666;}</style>
  </defs>
  <path class="cls-1" d="M360.81425,161.64926c0-17.166-8.31-30.716-24.23087-30.716-15.94591,0-25.64755,13.55552-25.64755,30.62631,0,20.21167,11.43986,30.43656,27.76357,30.43656,8.01087,0,14.0246-1.82279,18.5774-4.34484V174.14757a35.403,35.403,0,0,1-16.46388,3.70849c-6.53174,0-12.287-2.31517-13.03649-10.16881h32.81108C360.66309,166.78109,360.81425,163.27,360.81425,161.64926Zm-33.18476-6.33669c0-7.55256,4.65728-10.7152,8.84685-10.7152,4.11608,0,8.47929,3.17126,8.47929,10.7152Z"></path>
  <path class="cls-1" d="M285.02193,130.93309a18.76367,18.76367,0,0,0-13.12885,5.25677l-.87173-4.14242H256.26192l.00625,78.23762,16.76056-3.56261.035-18.96643a18.80117,18.80117,0,0,0,11.85666,4.24006c11.99089,0,22.95816-9.65014,22.95816-30.94684C307.87851,141.536,296.79325,130.93291,285.02193,130.93309Zm-4.00511,46.25414v-.00006a10.01725,10.01725,0,0,1-7.90538-3.17988l-.0996-24.90653a10.11831,10.11831,0,0,1,8.005-3.32053c6.13236,0,10.35339,6.86964,10.35339,15.638C291.37021,170.44105,287.21561,177.18723,281.01682,177.18723Z"></path>
  <polygon class="cls-1" points="249.98 109.715 233.155 113.292 233.155 126.942 249.98 123.365 249.98 109.715"></polygon>
  <rect class="cls-1" x="233.15475" y="132.04744" width="16.82549" height="58.75061"></rect>
  <path class="cls-1" d="M215.12867,137.00254l-1.05054-4.9551H199.5879v58.75062H216.338V150.96957c3.96045-5.20171,10.64681-4.19838,12.78043-3.51022V132.05381C226.88537,131.25088,219.05035,129.7899,215.12867,137.00254Z"></path>
  <path class="cls-1" d="M181.51764,117.49448l-16.36355,3.47817-.07118,53.77441c0,9.92309,7.46151,17.249,17.40857,17.249,5.47989,0,9.527-.99548,11.76282-2.22139V176.13068c-2.147.85894-12.72369,3.93416-12.72369-5.945v-23.845H194.26V132.04744H181.53061Z"></path>
  <path class="cls-1" d="M136.13779,149.10325c0-2.61613,2.17994-3.63207,5.69207-3.63207a37.56159,37.56159,0,0,1,16.6698,4.31339V133.99993a44.28244,44.28244,0,0,0-16.65428-3.06678c-13.59543,0-22.65963,7.10067-22.65963,18.96595,0,18.55551,25.48021,15.5416,25.48021,23.54373,0,3.09675-2.69178,4.09829-6.43047,4.09829-5.55143,0-12.71692-2.293-18.34191-5.35221V188.1915A46.51033,46.51033,0,0,0,138.22,191.99608c13.93527,0,23.538-6.88581,23.538-18.95061C161.75793,153.06073,136.13779,156.64588,136.13779,149.10325Z"></path>
</svg>
